/* XPM */
static char *coin_xpm[] = {
"16 16 4 1",
"  c black",
". c #AB4326",
"X c #DC6D42",
"o c #86A4CA",
"oooooooooooooooo",
"oooooXXXX  ooooo",
"ooooXXXXXX  oooo",
"ooooXX..XX  oooo",
"oooXX.XX XX  ooo",
"oooXX.XX XX  ooo",
"oooXX.XX XX  ooo",
"oooXX.XX XX  ooo",
"oooXX.XX XX  ooo",
"oooXX.XX XX  ooo",
"oooXX.XX XX  ooo",
"oooXX.XX XX  ooo",
"ooooXX  XX  oooo",
"ooooXXXXXX  oooo",
"oooooXXXX  ooooo",
"oooooooooooooooo"
};
