/* XPM */
static char *_36af1f8951348058c565e29a5e107f7LVCtywTbm9QRxdwA[] = {
/* columns rows colors chars-per-pixel */
"16 16 16 1 ",
"  c black",
". c #010000",
"X c #000100",
"o c #010101",
"O c #000002",
"+ c #AF4D1C",
"@ c #AE4C1D",
"# c #AF4D1E",
"$ c #B14C1E",
"% c #B04E1F",
"& c #CDA466",
"* c #CEA567",
"= c #CFA668",
"- c #D0A465",
"; c #D0A467",
": c #D1A568",
/* pixels */
"=;;:;;;;=;;:;;;;",
";###### ;###### ",
";$##### ;$##### ",
"                ",
";;: ;;;*;;: ;;;*",
"### ;###### ;###",
"#$$ ;####$$ ;###",
"                ",
"*;;;;;; *;;;;;; ",
";#$#### ;#$#### ",
";###### ;###### ",
"                ",
";;; ;;;;;;; ;;;;",
"### ;$##### ;$##",
"### ;###### ;###",
"                "
};
