/* XPM */
static char *renga_xpm[] = {
"16 16 3 1 ",
"  c black",
". c #AF4D1E",
"X c #D0A467",
"XXXXXXXXXXXXXXXX",
"X...... X...... ",
"X...... X...... ",
"                ",
"XXX XXXXXXX XXXX",
"... X...... X...",
"... X...... X...",
"                ",
"XXXXXXX XXXXXXX ",
"X...... X...... ",
"X...... X...... ",
"                ",
"XXX XXXXXXX XXXX",
"... X...... X...",
"... X...... X...",
"                "
};
