/* XPM */
static char * ground_xpm[] = {
"16 16 4 1",
"  c None",
". c #7CFC00",
", c #228B22",
"o c #2E8B57",
"................",
"..,,..,,,.,..,,.",
"...,..,,...,,,,.",
"....,,.,.,..,,..",
".,,...,..,.,,,..",
"...,..,,..,,,..,",
"...,..,,..,,.,..",
"..,.,,..,.,..,,.",
"..,,,....,..,,,.",
".,,..,..,,.,..,.",
",,..,,.,...,,..,",
"...,.,..,,..,,..",
".,,...,..,,..,..",
"..,,...,.,,,.,..",
",,..,..,.,,,,...",
"................"
};
