/* XPM */
static char * wall_xpm[] = {
"16 16 4 1",
"  c None",
"# c #8B4513",
". c #A0522D",
"o c #654321",
"################",
"#..o..oo..o..o.#",
"#.oo..o..oo..o.#",
"#..oo..o..oo..o#",
"################",
"#..o..oo..o..o.#",
"#.oo..o..oo..o.#",
"#..oo..o..oo..o#",
"################",
"#..o..oo..o..o.#",
"#.oo..o..oo..o.#",
"#..oo..o..oo..o#",
"################",
"#..o..oo..o..o.#",
"#.oo..o..oo..o.#",
"#..oo..o..oo..o#",
"################"
};
